<?xml version="1.0" encoding="UTF-8" standalone="no"?>
<!-- Created with Inkscape (http://www.inkscape.org/) -->

<svg
   xmlns:dc="http://purl.org/dc/elements/1.1/"
   xmlns:cc="http://creativecommons.org/ns#"
   xmlns:rdf="http://www.w3.org/1999/02/22-rdf-syntax-ns#"
   xmlns:svg="http://www.w3.org/2000/svg"
   xmlns="http://www.w3.org/2000/svg"
   xmlns:sodipodi="http://sodipodi.sourceforge.net/DTD/sodipodi-0.dtd"
   xmlns:inkscape="http://www.inkscape.org/namespaces/inkscape"
   id="svg4190"
   version="1.1"
   inkscape:version="0.91 r13725"
   xml:space="preserve"
   width="630"
   height="630"
   viewBox="0 0 630 630"
   sodipodi:docname="transition-network3.svg"><metadata
     id="metadata4196"><rdf:RDF><cc:Work
         rdf:about=""><dc:format>image/svg+xml</dc:format><dc:type
           rdf:resource="http://purl.org/dc/dcmitype/StillImage" /><dc:title></dc:title></cc:Work></rdf:RDF></metadata><defs
     id="defs4194"><clipPath
       clipPathUnits="userSpaceOnUse"
       id="clipPath4206"><path
         d="m 14.4,14.4 475.2,0 0,475.2 -475.2,0 0,-475.2 z"
         id="path4208"
         inkscape:connector-curvature="0" /></clipPath></defs><sodipodi:namedview
     pagecolor="#ffffff"
     bordercolor="#666666"
     borderopacity="1"
     objecttolerance="10"
     gridtolerance="10"
     guidetolerance="10"
     inkscape:pageopacity="0"
     inkscape:pageshadow="2"
     inkscape:window-width="1040"
     inkscape:window-height="698"
     id="namedview4192"
     showgrid="false"
     inkscape:zoom="0.9015873"
     inkscape:cx="334.41021"
     inkscape:cy="315"
     inkscape:window-x="0"
     inkscape:window-y="0"
     inkscape:window-maximized="0"
     inkscape:current-layer="g4204" /><g
     id="g4198"
     inkscape:groupmode="layer"
     inkscape:label="transition-network2"
     transform="matrix(1.25,0,0,-1.25,0,630)"><g
       id="g4200" /><g
       id="g4202"><g
         id="g4204"
         clip-path="url(#clipPath4206)"><path
           d="m 436.8,252 2.75,0 2.75,0 2.75,0 2.75,0 2.75,0 2.75,0 2.75,0 2.75,0 2.75,0 2.75,0 2.75,0 2.75,0 -0.02,-2.74 -0.05,-2.73 -0.08,-2.73 -0.12,-2.74 -0.16,-2.73 -0.19,-2.73 -0.22,-2.72 -0.26,-2.72 -0.29,-2.72 -0.33,-2.72 -0.35,-2.71 -0.4,-2.71 -0.43,-2.7 -0.46,-2.69 -0.49,-2.69 -0.53,-2.69 -0.56,-2.67 -0.6,-2.67 -0.63,-2.67 -0.66,-2.65 -0.7,-2.64 -0.73,-2.64 -0.76,-2.63 -0.8,-2.61 -0.83,-2.61 -0.86,-2.6 -0.89,-2.58 -0.93,-2.57 -0.95,-2.57 -0.99,-2.55 -1.03,-2.53 -1.05,-2.53 -1.09,-2.51 -1.11,-2.49 -1.15,-2.49 -1.18,-2.46 -1.21,-2.46 -1.24,-2.43 -1.27,-2.43 -1.3,-2.4 -1.34,-2.39 -1.36,-2.37 -1.39,-2.36 -1.42,-2.33 -1.45,-2.32 -1.48,-2.3 -1.51,-2.29 -1.53,-2.26 -1.57,-2.24 -1.59,-2.22 -1.62,-2.21 -1.65,-2.18 -1.68,-2.16 -1.7,-2.14 -1.73,-2.12 -1.75,-2.1 -1.78,-2.07 -1.81,-2.06 -1.84,-2.03 -1.85,-2 -1.89,-1.99 -1.91,-1.96 -1.93,-1.93 -1.96,-1.91 -1.98,-1.89 -2,-1.86 -2.03,-1.83 -2.05,-1.81 -2.07,-1.79 -2.1,-1.76 -2.12,-1.73 -2.14,-1.7 -2.16,-1.68 -2.18,-1.65 -2.2,-1.62 -2.22,-1.6 -2.24,-1.56 -2.26,-1.54 -2.28,-1.51 -2.3,-1.49 -2.32,-1.45 -2.33,-1.42 -1.42,2.36 -1.42,2.35 -1.41,2.36 -1.42,2.36 -1.42,2.36 -1.41,2.35 -1.42,2.36 -1.42,2.36 -1.41,2.35 -1.42,2.36 -1.41,2.36 -1.42,2.36 1.98,1.2 1.97,1.24 1.95,1.25 1.93,1.28 1.92,1.31 1.9,1.33 1.89,1.35 1.87,1.38 1.85,1.4 1.83,1.42 1.81,1.45 1.8,1.47 1.78,1.49 1.76,1.51 1.74,1.54 1.72,1.56 1.7,1.58 1.68,1.6 1.66,1.62 1.64,1.64 1.62,1.66 1.6,1.68 1.58,1.71 1.55,1.72 1.53,1.74 1.52,1.76 1.49,1.78 1.46,1.8 1.45,1.82 1.42,1.83 1.4,1.85 1.37,1.87 1.35,1.89 1.33,1.9 1.31,1.92 1.27,1.94 1.26,1.95 1.23,1.97 1.21,1.98 1.18,2 1.15,2.01 1.13,2.03 1.11,2.04 1.08,2.05 1.05,2.07 1.02,2.08 1.01,2.1 0.97,2.1 0.95,2.12 0.92,2.13 0.89,2.14 0.87,2.15 0.84,2.17 0.81,2.17 0.79,2.19 0.76,2.19 0.73,2.2 0.7,2.21 0.68,2.22 0.64,2.23 0.62,2.24 0.59,2.24 0.56,2.25 0.54,2.26 0.5,2.27 0.48,2.27 0.45,2.28 0.42,2.28 0.39,2.28 0.37,2.3 0.33,2.29 0.3,2.3 0.28,2.31 0.25,2.31 0.22,2.31 0.19,2.31 0.16,2.31 0.13,2.32 0.1,2.32 0.07,2.32 0.05,2.32 0.01,2.32 z"
           style="fill:#e41a1c;fill-opacity:1;fill-rule:nonzero;stroke:#000000;stroke-width:0.75;stroke-linecap:round;stroke-linejoin:round;stroke-miterlimit:10;stroke-dasharray:none;stroke-opacity:1"
           id="path4210"
           inkscape:connector-curvature="0" /><text
           transform="matrix(0.4248607,0.90525874,0.90525874,-0.4248607,0,0)"
           style="font-variant:normal;font-weight:normal;font-size:18.00590134px;font-family:Helvetica;-inkscape-font-specification:Helvetica;writing-mode:lr-tb;fill:#000000;fill-opacity:1;fill-rule:nonzero;stroke:none"
           id="text4212"
           x="325.63019"
           y="326.50616"><tspan
             x="325.63019"
             y="326.50616"
             id="tspan4214">w</tspan></text>
<text
           transform="matrix(0.47892998,0.8778531,0.8778531,-0.47892998,0,0)"
           style="font-variant:normal;font-weight:normal;font-size:17.99845505px;font-family:Helvetica;-inkscape-font-specification:Helvetica;writing-mode:lr-tb;fill:#000000;fill-opacity:1;fill-rule:nonzero;stroke:none"
           id="text4216"
           x="334.39603"
           y="306.14206"><tspan
             x="334.39603"
             y="306.14206"
             id="tspan4218">o</tspan></text>
<text
           transform="matrix(0.51498585,0.85719868,0.85719868,-0.51498585,0,0)"
           style="font-variant:normal;font-weight:normal;font-size:18.000494px;font-family:Helvetica;-inkscape-font-specification:Helvetica;writing-mode:lr-tb;fill:#000000;fill-opacity:1;fill-rule:nonzero;stroke:none"
           id="text4220"
           x="340.56073"
           y="291.94635"><tspan
             x="340.56073"
             y="291.94635"
             id="tspan4222">r</tspan></text>
<text
           transform="matrix(0.55713333,0.83042306,0.83042306,-0.55713333,0,0)"
           style="font-variant:normal;font-weight:normal;font-size:18.00287247px;font-family:Helvetica;-inkscape-font-specification:Helvetica;writing-mode:lr-tb;fill:#000000;fill-opacity:1;fill-rule:nonzero;stroke:none"
           id="text4224"
           x="341.38589"
           y="274.68237"><tspan
             x="341.38589"
             y="274.68237"
             id="tspan4226">C</tspan></text>
<path
           d="m 344.4,91.96 1.37,-2.38 1.38,-2.38 1.37,-2.39 1.38,-2.38 1.38,-2.38 1.37,-2.38 1.37,-2.38 1.38,-2.38 1.37,-2.39 1.38,-2.38 1.37,-2.38 1.38,-2.38 -2.38,-1.35 -2.39,-1.33 -2.41,-1.29 -2.43,-1.26 -2.44,-1.23 -2.46,-1.2 -2.47,-1.17 -2.49,-1.14 -2.5,-1.11 -2.51,-1.07 -2.53,-1.05 -2.54,-1.01 -2.55,-0.98 -2.57,-0.95 -2.58,-0.92 -2.59,-0.88 -2.59,-0.85 -2.61,-0.82 -2.62,-0.78 -2.63,-0.76 -2.64,-0.72 -2.65,-0.68 -2.66,-0.66 -2.66,-0.61 -2.67,-0.59 -2.68,-0.55 -2.69,-0.52 -2.69,-0.49 -2.7,-0.45 -2.7,-0.42 -2.71,-0.38 -2.71,-0.35 -2.72,-0.31 -2.72,-0.28 -2.72,-0.25 -2.73,-0.21 -2.73,-0.18 -2.73,-0.15 -2.73,-0.11 -2.73,-0.07 -2.74,-0.04 -2.73,-0.01 -2.74,0.03 -2.73,0.06 -2.74,0.1 -2.73,0.13 -2.73,0.16 -2.73,0.2 -2.72,0.24 -2.72,0.26 -2.72,0.31 -2.72,0.33 -2.71,0.37 -2.7,0.41 -2.7,0.43 -2.7,0.47 -2.68,0.51 -2.69,0.54 -2.67,0.57 -2.67,0.61 -2.66,0.64 -2.65,0.67 -2.64,0.71 -2.63,0.74 -2.63,0.77 -2.61,0.81 -2.6,0.83 -2.6,0.88 -2.58,0.9 -2.57,0.93 -2.56,0.97 -2.54,1 -2.53,1.03 -2.52,1.07 -2.51,1.09 -2.49,1.13 -2.48,1.16 -2.46,1.19 -2.45,1.22 -2.43,1.25 -2.42,1.28 -2.4,1.31 1.33,2.4 1.33,2.41 1.34,2.4 1.33,2.41 1.33,2.4 1.34,2.41 1.33,2.4 1.33,2.41 1.34,2.4 1.33,2.41 1.33,2.41 1.34,2.4 2.03,-1.11 2.05,-1.09 2.07,-1.06 2.08,-1.03 2.09,-1.01 2.1,-0.99 2.11,-0.95 2.13,-0.93 2.14,-0.9 2.15,-0.88 2.16,-0.85 2.17,-0.82 2.18,-0.79 2.19,-0.77 2.2,-0.74 2.21,-0.71 2.21,-0.68 2.23,-0.66 2.24,-0.63 2.24,-0.59 2.25,-0.58 2.25,-0.54 2.27,-0.51 2.26,-0.49 2.28,-0.46 2.28,-0.43 2.29,-0.4 2.29,-0.37 2.29,-0.34 2.3,-0.31 2.3,-0.29 2.31,-0.26 2.31,-0.22 2.31,-0.2 2.32,-0.17 2.31,-0.14 2.32,-0.11 2.32,-0.08 2.32,-0.06 2.32,-0.02 2.32,0.01 2.32,0.03 2.32,0.07 2.32,0.09 2.32,0.12 2.31,0.15 2.32,0.18 2.31,0.21 2.31,0.24 2.3,0.27 2.31,0.29 2.29,0.33 2.3,0.35 2.29,0.39 2.28,0.41 2.28,0.44 2.27,0.47 2.27,0.49 2.26,0.53 2.25,0.55 2.25,0.59 2.24,0.61 2.23,0.63 2.22,0.67 2.22,0.7 2.2,0.72 2.2,0.75 2.18,0.77 2.18,0.81 2.17,0.83 2.15,0.86 2.15,0.89 2.13,0.91 2.12,0.94 2.11,0.96 2.1,1 2.09,1.02 2.07,1.04 2.06,1.07 2.04,1.1 2.03,1.12 2.02,1.15 z"
           style="fill:#4daf4a;fill-opacity:1;fill-rule:nonzero;stroke:#000000;stroke-width:0.75;stroke-linecap:round;stroke-linejoin:round;stroke-miterlimit:10;stroke-dasharray:none;stroke-opacity:1"
           id="path4228"
           inkscape:connector-curvature="0" /><text
           transform="matrix(0.99061594,0.136675,0.136675,-0.99061594,0,0)"
           style="font-variant:normal;font-weight:normal;font-size:17.99890327px;font-family:Helvetica;-inkscape-font-specification:Helvetica;writing-mode:lr-tb;fill:#000000;fill-opacity:1;fill-rule:nonzero;stroke:none"
           id="text4230"
           x="278.03183"
           y="-10.336996"><tspan
             x="278.03183"
             y="-10.336996"
             id="tspan4232">o</tspan></text>
<text
           transform="matrix(0.99742758,0.07168142,0.07168142,-0.99742758,0,0)"
           style="font-variant:normal;font-weight:normal;font-size:17.99629402px;font-family:Helvetica;-inkscape-font-specification:Helvetica;writing-mode:lr-tb;fill:#000000;fill-opacity:1;fill-rule:nonzero;stroke:none"
           id="text4234"
           x="261.33661"
           y="-28.38003"><tspan
             x="261.33661"
             y="-28.38003"
             id="tspan4236">m</tspan></text>
<text
           transform="matrix(0.99976536,0.02166158,0.02166158,-0.99976536,0,0)"
           style="font-variant:normal;font-weight:normal;font-size:18.00422478px;font-family:Helvetica;-inkscape-font-specification:Helvetica;writing-mode:lr-tb;fill:#000000;fill-opacity:1;fill-rule:nonzero;stroke:none"
           id="text4238"
           x="255.24997"
           y="-41.550632"><tspan
             x="255.24997"
             y="-41.550632"
             id="tspan4240">i</tspan></text>
<text
           transform="matrix(0.99992532,-0.01222131,-0.01222131,-0.99992532,0,0)"
           style="font-variant:normal;font-weight:normal;font-size:18.00134468px;font-family:Helvetica;-inkscape-font-specification:Helvetica;writing-mode:lr-tb;fill:#000000;fill-opacity:1;fill-rule:nonzero;stroke:none"
           id="text4242"
           x="244.47557"
           y="-50.131557"><tspan
             x="244.47557"
             y="-50.131557"
             id="tspan4244">k</tspan></text>
<text
           transform="matrix(0.99823197,-0.05943841,-0.05943841,-0.99823197,0,0)"
           style="font-variant:normal;font-weight:normal;font-size:18.00182724px;font-family:Helvetica;-inkscape-font-specification:Helvetica;writing-mode:lr-tb;fill:#000000;fill-opacity:1;fill-rule:nonzero;stroke:none"
           id="text4246"
           x="232.51854"
           y="-61.619484"><tspan
             x="232.51854"
             y="-61.619484"
             id="tspan4248">s</tspan></text>
<text
           transform="matrix(0.99342839,-0.1144554,-0.1144554,-0.99342839,0,0)"
           style="font-variant:normal;font-weight:normal;font-size:17.99827766px;font-family:Helvetica;-inkscape-font-specification:Helvetica;writing-mode:lr-tb;fill:#000000;fill-opacity:1;fill-rule:nonzero;stroke:none"
           id="text4250"
           x="216.39737"
           y="-74.306152"><tspan
             x="216.39737"
             y="-74.306152"
             id="tspan4252">E</tspan></text>
<path
           d="m 159.6,91.96 -1.38,-2.38 -1.37,-2.38 -1.38,-2.39 -1.37,-2.38 -1.38,-2.38 -1.37,-2.38 -1.38,-2.38 -1.37,-2.38 -1.38,-2.39 -1.37,-2.38 -1.38,-2.38 -1.37,-2.38 -2.36,1.38 -2.34,1.41 -2.33,1.45 -2.3,1.47 -2.29,1.49 -2.27,1.53 -2.25,1.56 -2.23,1.58 -2.21,1.61 -2.19,1.64 -2.17,1.67 -2.14,1.7 -2.13,1.72 -2.1,1.74 -2.08,1.78 -2.06,1.8 -2.04,1.82 -2.01,1.85 -1.99,1.88 -1.97,1.9 -1.94,1.93 -1.92,1.95 -1.89,1.97 -1.87,2 -1.85,2.02 -1.81,2.04 -1.8,2.07 -1.76,2.09 -1.74,2.11 -1.71,2.13 -1.69,2.15 -1.66,2.18 -1.63,2.19 -1.6,2.22 -1.58,2.24 -1.55,2.25 -1.52,2.27 -1.49,2.3 -1.46,2.31 -1.43,2.33 -1.4,2.35 -1.38,2.36 -1.34,2.39 -1.31,2.39 -1.29,2.42 -1.25,2.43 -1.22,2.45 -1.19,2.46 -1.16,2.48 -1.13,2.49 -1.1,2.5 -1.07,2.52 -1.03,2.53 -1,2.55 -0.97,2.56 -0.94,2.56 -0.91,2.59 -0.87,2.59 -0.84,2.6 -0.81,2.61 -0.78,2.63 -0.74,2.63 -0.71,2.64 -0.68,2.65 -0.64,2.66 -0.61,2.66 -0.57,2.68 -0.55,2.68 -0.5,2.69 -0.48,2.69 -0.44,2.7 -0.41,2.7 -0.37,2.71 -0.34,2.72 -0.3,2.72 -0.27,2.72 -0.24,2.72 -0.2,2.73 -0.17,2.73 -0.13,2.73 -0.1,2.73 -0.07,2.74 2.75,0.05 2.75,0.04 2.75,0.05 2.75,0.05 2.75,0.05 2.75,0.05 2.75,0.04 2.75,0.05 2.75,0.05 2.75,0.05 2.75,0.05 2.75,0.04 0.05,-2.32 0.09,-2.31 0.11,-2.32 0.14,-2.32 0.17,-2.31 0.21,-2.31 0.22,-2.31 0.26,-2.31 0.29,-2.3 0.32,-2.3 0.34,-2.3 0.38,-2.29 0.4,-2.28 0.43,-2.28 0.46,-2.28 0.49,-2.27 0.52,-2.26 0.54,-2.25 0.57,-2.25 0.61,-2.24 0.63,-2.24 0.65,-2.22 0.69,-2.22 0.71,-2.21 0.75,-2.2 0.76,-2.19 0.8,-2.18 0.82,-2.17 0.85,-2.16 0.88,-2.14 0.91,-2.14 0.93,-2.13 0.96,-2.11 0.98,-2.1 1.01,-2.09 1.04,-2.08 1.06,-2.06 1.09,-2.05 1.12,-2.03 1.14,-2.03 1.16,-2 1.19,-2 1.22,-1.97 1.24,-1.96 1.26,-1.95 1.29,-1.93 1.31,-1.91 1.34,-1.9 1.36,-1.88 1.38,-1.86 1.41,-1.85 1.43,-1.83 1.46,-1.8 1.47,-1.8 1.5,-1.77 1.52,-1.75 1.54,-1.73 1.57,-1.72 1.58,-1.69 1.61,-1.68 1.63,-1.65 1.64,-1.64 1.67,-1.61 1.69,-1.59 1.71,-1.57 1.73,-1.55 1.75,-1.53 1.76,-1.5 1.79,-1.49 1.8,-1.46 1.82,-1.43 1.84,-1.42 1.86,-1.39 1.87,-1.37 1.9,-1.34 1.9,-1.32 1.93,-1.3 1.94,-1.27 1.96,-1.25 1.97,-1.22 1.99,-1.2 2,-1.17 z"
           style="fill:#984ea3;fill-opacity:1;fill-rule:nonzero;stroke:#000000;stroke-width:0.75;stroke-linecap:round;stroke-linejoin:round;stroke-miterlimit:10;stroke-dasharray:none;stroke-opacity:1"
           id="path4254"
           inkscape:connector-curvature="0" /><text
           transform="matrix(0.64454631,-0.76456527,-0.76456527,-0.64454631,0,0)"
           style="font-variant:normal;font-weight:normal;font-size:17.99715614px;font-family:Helvetica;-inkscape-font-specification:Helvetica;writing-mode:lr-tb;fill:#000000;fill-opacity:1;fill-rule:nonzero;stroke:none"
           id="text4256"
           x="-34.689568"
           y="-151.40504"><tspan
             x="-34.689568"
             y="-151.40504"
             id="tspan4258">n</tspan></text>
<text
           transform="matrix(0.60346177,-0.79739193,-0.79739193,-0.60346177,0,0)"
           style="font-variant:normal;font-weight:normal;font-size:17.99616814px;font-family:Helvetica;-inkscape-font-specification:Helvetica;writing-mode:lr-tb;fill:#000000;fill-opacity:1;fill-rule:nonzero;stroke:none"
           id="text4260"
           x="-52.957138"
           y="-149.3589"><tspan
             x="-52.957138"
             y="-149.3589"
             id="tspan4262">a</tspan></text>
<text
           transform="matrix(0.5739097,-0.81891859,-0.81891859,-0.5739097,0,0)"
           style="font-variant:normal;font-weight:normal;font-size:17.99934769px;font-family:Helvetica;-inkscape-font-specification:Helvetica;writing-mode:lr-tb;fill:#000000;fill-opacity:1;fill-rule:nonzero;stroke:none"
           id="text4264"
           x="-62.619434"
           y="-147.37471"><tspan
             x="-62.619434"
             y="-147.37471"
             id="tspan4266">i</tspan></text>
<text
           transform="matrix(0.55610965,-0.83110893,-0.83110893,-0.55610965,0,0)"
           style="font-variant:normal;font-weight:normal;font-size:18.00004768px;font-family:Helvetica;-inkscape-font-specification:Helvetica;writing-mode:lr-tb;fill:#000000;fill-opacity:1;fill-rule:nonzero;stroke:none"
           id="text4268"
           x="-69.913933"
           y="-145.98546"><tspan
             x="-69.913933"
             y="-145.98546"
             id="tspan4270">i</tspan></text>
<text
           transform="matrix(0.52564666,-0.850703,-0.850703,-0.52564666,0,0)"
           style="font-variant:normal;font-weight:normal;font-size:17.99687958px;font-family:Helvetica;-inkscape-font-specification:Helvetica;writing-mode:lr-tb;fill:#000000;fill-opacity:1;fill-rule:nonzero;stroke:none"
           id="text4272"
           x="-85.401726"
           y="-143.30632"><tspan
             x="-85.401726"
             y="-143.30632"
             id="tspan4274">a</tspan></text>
<text
           transform="matrix(0.4732384,-0.8809344,-0.8809344,-0.4732384,0,0)"
           style="font-variant:normal;font-weight:normal;font-size:18.00361061px;font-family:Helvetica;-inkscape-font-specification:Helvetica;writing-mode:lr-tb;fill:#000000;fill-opacity:1;fill-rule:nonzero;stroke:none"
           id="text4276"
           x="-107.30445"
           y="-137.82021"><tspan
             x="-107.30445"
             y="-137.82021"
             id="tspan4278">w</tspan></text>
<text
           transform="matrix(0.4189877,-0.90799191,-0.90799191,-0.4189877,0,0)"
           style="font-variant:normal;font-weight:normal;font-size:17.99575424px;font-family:Helvetica;-inkscape-font-specification:Helvetica;writing-mode:lr-tb;fill:#000000;fill-opacity:1;fill-rule:nonzero;stroke:none"
           id="text4280"
           x="-125.87151"
           y="-131.10095"><tspan
             x="-125.87151"
             y="-131.10095"
             id="tspan4282">a</tspan></text>
<text
           transform="matrix(0.36333081,-0.9316602,-0.9316602,-0.36333081,0,0)"
           style="font-variant:normal;font-weight:normal;font-size:18.00012589px;font-family:Helvetica;-inkscape-font-specification:Helvetica;writing-mode:lr-tb;fill:#000000;fill-opacity:1;fill-rule:nonzero;stroke:none"
           id="text4284"
           x="-146.96277"
           y="-123.19524"><tspan
             x="-146.96277"
             y="-123.19524"
             id="tspan4286">H</tspan></text>
<path
           d="m 67.2,252 -2.75,0 -2.75,0 -2.75,0 -2.75,0 -2.75,0 -2.75,0 -2.75,0 -2.75,0 -2.75,0 -2.75,0 -2.75,0 -2.75,0 0.02,2.74 0.05,2.73 0.08,2.73 0.12,2.74 0.16,2.73 0.19,2.73 0.22,2.72 0.26,2.72 0.29,2.72 0.33,2.72 0.35,2.71 0.4,2.71 0.43,2.7 0.46,2.69 0.49,2.69 0.53,2.69 0.56,2.67 0.6,2.67 0.63,2.67 0.66,2.65 0.7,2.64 0.73,2.64 0.76,2.63 0.8,2.61 0.83,2.61 0.86,2.6 0.89,2.58 0.93,2.57 0.95,2.57 0.99,2.55 1.03,2.53 1.05,2.53 1.09,2.51 1.11,2.49 1.15,2.49 1.18,2.46 1.21,2.46 1.24,2.43 1.27,2.43 1.3,2.4 1.34,2.39 1.36,2.37 1.39,2.36 1.42,2.33 1.45,2.32 1.48,2.3 1.51,2.29 1.53,2.26 1.57,2.24 1.59,2.22 1.62,2.21 1.65,2.18 1.68,2.16 1.7,2.14 1.73,2.12 1.75,2.1 1.78,2.07 1.81,2.06 1.84,2.03 1.85,2 1.89,1.99 1.91,1.96 1.93,1.93 1.96,1.91 1.98,1.89 2,1.86 2.03,1.83 2.05,1.81 2.07,1.79 2.1,1.76 2.12,1.73 2.14,1.7 2.16,1.68 2.18,1.65 2.2,1.62 2.22,1.6 2.24,1.56 2.26,1.54 2.28,1.51 2.3,1.49 2.32,1.45 2.33,1.42 1.42,-2.36 1.42,-2.35 1.41,-2.36 1.42,-2.36 1.42,-2.36 1.41,-2.35 1.42,-2.36 1.42,-2.36 1.41,-2.35 1.42,-2.36 1.41,-2.36 1.42,-2.36 -1.98,-1.2 -1.97,-1.24 -1.95,-1.25 -1.93,-1.28 -1.92,-1.31 -1.9,-1.33 -1.89,-1.35 -1.87,-1.38 -1.85,-1.4 -1.83,-1.42 -1.81,-1.45 -1.8,-1.47 -1.78,-1.49 -1.76,-1.51 -1.74,-1.54 -1.72,-1.56 -1.7,-1.58 -1.68,-1.6 -1.66,-1.62 -1.64,-1.64 -1.62,-1.66 -1.6,-1.68 -1.58,-1.71 -1.55,-1.72 -1.53,-1.74 -1.52,-1.76 -1.49,-1.78 -1.46,-1.8 -1.45,-1.82 -1.42,-1.83 -1.4,-1.85 -1.37,-1.87 -1.35,-1.89 -1.33,-1.9 -1.31,-1.92 -1.27,-1.94 -1.26,-1.95 -1.23,-1.97 -1.21,-1.98 -1.18,-2 -1.15,-2.01 -1.13,-2.03 -1.11,-2.04 -1.08,-2.05 -1.05,-2.07 -1.02,-2.08 -1.01,-2.1 -0.97,-2.1 -0.95,-2.12 -0.92,-2.13 -0.89,-2.14 -0.87,-2.15 -0.84,-2.17 -0.81,-2.17 -0.79,-2.19 -0.76,-2.19 -0.73,-2.2 -0.7,-2.21 -0.68,-2.22 -0.64,-2.23 -0.62,-2.24 -0.59,-2.24 -0.56,-2.25 -0.54,-2.26 -0.5,-2.27 -0.48,-2.27 -0.45,-2.28 -0.42,-2.28 -0.39,-2.28 -0.37,-2.3 -0.33,-2.29 -0.3,-2.3 -0.28,-2.31 -0.25,-2.31 -0.22,-2.31 -0.19,-2.31 -0.16,-2.31 -0.13,-2.32 -0.1,-2.32 -0.07,-2.32 -0.05,-2.32 L 67.2,252 Z"
           style="fill:#ff7f00;fill-opacity:1;fill-rule:nonzero;stroke:#000000;stroke-width:0.75;stroke-linecap:round;stroke-linejoin:round;stroke-miterlimit:10;stroke-dasharray:none;stroke-opacity:1"
           id="path4288"
           inkscape:connector-curvature="0" /><text
           transform="matrix(0.35215805,0.93594055,0.93594055,-0.35215805,0,0)"
           style="font-variant:normal;font-weight:normal;font-size:18.00328064px;font-family:Helvetica;-inkscape-font-specification:Helvetica;writing-mode:lr-tb;fill:#000000;fill-opacity:1;fill-rule:nonzero;stroke:none"
           id="text4290"
           x="325.84671"
           y="-45.141266"><tspan
             x="325.84671"
             y="-45.141266"
             id="tspan4292">I</tspan></text>
<text
           transform="matrix(0.37884914,0.92545844,0.92545844,-0.37884914,0,0)"
           style="font-variant:normal;font-weight:normal;font-size:18.00188828px;font-family:Helvetica;-inkscape-font-specification:Helvetica;writing-mode:lr-tb;fill:#000000;fill-opacity:1;fill-rule:nonzero;stroke:none"
           id="text4294"
           x="329.23245"
           y="-54.610168"><tspan
             x="329.23245"
             y="-54.610168"
             id="tspan4296">r</tspan></text>
<text
           transform="matrix(0.41764889,0.9086085,0.9086085,-0.41764889,0,0)"
           style="font-variant:normal;font-weight:normal;font-size:18.0055542px;font-family:Helvetica;-inkscape-font-specification:Helvetica;writing-mode:lr-tb;fill:#000000;fill-opacity:1;fill-rule:nonzero;stroke:none"
           id="text4298"
           x="332.35175"
           y="-68.771484"><tspan
             x="332.35175"
             y="-68.771484"
             id="tspan4300">o</tspan></text>
<text
           transform="matrix(0.46489921,0.88536361,0.88536361,-0.46489921,0,0)"
           style="font-variant:normal;font-weight:normal;font-size:18.00390244px;font-family:Helvetica;-inkscape-font-specification:Helvetica;writing-mode:lr-tb;fill:#000000;fill-opacity:1;fill-rule:nonzero;stroke:none"
           id="text4302"
           x="337.92679"
           y="-86.689651"><tspan
             x="337.92679"
             y="-86.689651"
             id="tspan4304">q</tspan></text>
<text
           transform="matrix(0.51048742,0.85988522,0.85988522,-0.51048742,0,0)"
           style="font-variant:normal;font-weight:normal;font-size:18.00240326px;font-family:Helvetica;-inkscape-font-specification:Helvetica;writing-mode:lr-tb;fill:#000000;fill-opacity:1;fill-rule:nonzero;stroke:none"
           id="text4306"
           x="342.60144"
           y="-104.7276"><tspan
             x="342.60144"
             y="-104.7276"
             id="tspan4308">u</tspan></text>
<text
           transform="matrix(0.55508481,0.83179376,0.83179376,-0.55508481,0,0)"
           style="font-variant:normal;font-weight:normal;font-size:17.9972496px;font-family:Helvetica;-inkscape-font-specification:Helvetica;writing-mode:lr-tb;fill:#000000;fill-opacity:1;fill-rule:nonzero;stroke:none"
           id="text4310"
           x="346.27301"
           y="-123.15655"><tspan
             x="346.27301"
             y="-123.15655"
             id="tspan4312">o</tspan></text>
<text
           transform="matrix(0.58559198,0.81060597,0.81060597,-0.58559198,0,0)"
           style="font-variant:normal;font-weight:normal;font-size:17.99888039px;font-family:Helvetica;-inkscape-font-specification:Helvetica;writing-mode:lr-tb;fill:#000000;fill-opacity:1;fill-rule:nonzero;stroke:none"
           id="text4314"
           x="351.22952"
           y="-136.24031"><tspan
             x="351.22952"
             y="-136.24031"
             id="tspan4316">i</tspan></text>
<text
           transform="matrix(0.61263239,0.79036799,0.79036799,-0.61263239,0,0)"
           style="font-variant:normal;font-weight:normal;font-size:18.00427246px;font-family:Helvetica;-inkscape-font-specification:Helvetica;writing-mode:lr-tb;fill:#000000;fill-opacity:1;fill-rule:nonzero;stroke:none"
           id="text4318"
           x="350.19992"
           y="-148.20166"><tspan
             x="350.19992"
             y="-148.20166"
             id="tspan4320">s</tspan></text>
<path
           d="m 159.6,412.04 -1.37,2.38 -1.38,2.38 -1.37,2.39 -1.38,2.38 -1.37,2.38 -1.38,2.38 -1.37,2.38 -1.38,2.38 -1.37,2.39 -1.38,2.38 -1.37,2.38 -1.38,2.38 2.38,1.35 2.39,1.33 2.41,1.29 2.43,1.26 2.44,1.23 2.46,1.2 2.47,1.17 2.49,1.14 2.5,1.11 2.51,1.07 2.53,1.05 2.54,1.01 2.55,0.98 2.57,0.95 2.58,0.92 2.59,0.88 2.59,0.85 2.61,0.82 2.62,0.78 2.63,0.76 2.64,0.72 2.65,0.68 2.66,0.66 2.66,0.61 2.67,0.59 2.68,0.55 2.69,0.52 2.69,0.49 2.7,0.45 2.7,0.42 2.71,0.38 2.71,0.35 2.72,0.31 2.72,0.28 2.72,0.25 2.73,0.21 2.73,0.18 2.73,0.15 2.73,0.11 2.73,0.07 2.74,0.04 2.73,0.01 2.74,-0.03 2.73,-0.06 2.74,-0.1 2.73,-0.13 2.73,-0.16 2.73,-0.2 2.72,-0.24 2.72,-0.26 2.72,-0.31 2.72,-0.33 2.71,-0.37 2.7,-0.41 2.7,-0.43 2.7,-0.47 2.68,-0.51 2.69,-0.54 2.67,-0.57 2.67,-0.61 2.66,-0.64 2.65,-0.67 2.64,-0.71 2.63,-0.74 2.63,-0.77 2.61,-0.81 2.6,-0.83 2.6,-0.88 2.58,-0.9 2.57,-0.93 2.56,-0.97 2.54,-1 2.53,-1.03 2.52,-1.07 2.51,-1.09 2.49,-1.13 2.48,-1.16 2.46,-1.19 2.45,-1.22 2.43,-1.25 2.42,-1.28 2.4,-1.31 -1.33,-2.4 -1.33,-2.41 -1.34,-2.4 -1.33,-2.41 -1.33,-2.4 -1.34,-2.41 -1.33,-2.4 -1.33,-2.41 -1.34,-2.4 -1.33,-2.41 -1.33,-2.41 -1.34,-2.4 -2.03,1.11 -2.05,1.09 -2.07,1.06 -2.08,1.03 -2.09,1.01 -2.1,0.99 -2.11,0.95 -2.13,0.93 -2.14,0.9 -2.15,0.88 -2.16,0.85 -2.17,0.82 -2.18,0.79 -2.19,0.77 -2.2,0.74 -2.21,0.71 -2.21,0.68 -2.23,0.66 -2.24,0.63 -2.24,0.59 -2.25,0.58 -2.25,0.54 -2.27,0.51 -2.26,0.49 -2.28,0.46 -2.28,0.43 -2.29,0.4 -2.29,0.37 -2.29,0.34 -2.3,0.31 -2.3,0.29 -2.31,0.26 -2.31,0.22 -2.31,0.2 -2.32,0.17 -2.31,0.14 -2.32,0.11 -2.32,0.08 -2.32,0.06 -2.32,0.02 -2.32,-0.01 -2.32,-0.03 -2.32,-0.07 -2.32,-0.09 -2.32,-0.12 -2.31,-0.15 -2.32,-0.18 -2.31,-0.21 -2.31,-0.24 -2.3,-0.27 -2.31,-0.29 -2.29,-0.33 -2.3,-0.35 -2.29,-0.39 -2.28,-0.41 -2.28,-0.44 -2.27,-0.47 -2.27,-0.49 -2.26,-0.53 -2.25,-0.55 -2.25,-0.59 -2.24,-0.61 -2.23,-0.63 -2.22,-0.67 -2.22,-0.7 -2.2,-0.72 -2.2,-0.75 -2.18,-0.77 -2.18,-0.81 -2.17,-0.83 -2.15,-0.86 -2.15,-0.89 -2.13,-0.91 -2.12,-0.94 -2.11,-0.96 -2.1,-1 -2.09,-1.02 -2.07,-1.04 -2.06,-1.07 -2.04,-1.1 -2.03,-1.12 -2.02,-1.15 z"
           style="fill:#ffff33;fill-opacity:1;fill-rule:nonzero;stroke:#000000;stroke-width:0.75;stroke-linecap:round;stroke-linejoin:round;stroke-miterlimit:10;stroke-dasharray:none;stroke-opacity:1"
           id="path4322"
           inkscape:connector-curvature="0" /><text
           transform="matrix(0.99194978,0.12663189,0.12663189,-0.99194978,0,0)"
           style="font-variant:normal;font-weight:normal;font-size:18.00494385px;font-family:Helvetica;-inkscape-font-specification:Helvetica;writing-mode:lr-tb;fill:#000000;fill-opacity:1;fill-rule:nonzero;stroke:none"
           id="text4324"
           x="275.9104"
           y="-410.00159"><tspan
             x="275.9104"
             y="-410.00159"
             id="tspan4326">O</tspan></text>
<text
           transform="matrix(0.99872168,0.05054709,0.05054709,-0.99872168,0,0)"
           style="font-variant:normal;font-weight:normal;font-size:18.00301361px;font-family:Helvetica;-inkscape-font-specification:Helvetica;writing-mode:lr-tb;fill:#000000;fill-opacity:1;fill-rule:nonzero;stroke:none"
           id="text4328"
           x="257.30142"
           y="-430.93506"><tspan
             x="257.30142"
             y="-430.93506"
             id="tspan4330">m</tspan></text>
<text
           transform="matrix(0.99988752,-0.01499831,-0.01499831,-0.99988752,0,0)"
           style="font-variant:normal;font-weight:normal;font-size:18.0020256px;font-family:Helvetica;-inkscape-font-specification:Helvetica;writing-mode:lr-tb;fill:#000000;fill-opacity:1;fill-rule:nonzero;stroke:none"
           id="text4332"
           x="243.07173"
           y="-447.75604"><tspan
             x="243.07173"
             y="-447.75604"
             id="tspan4334">a</tspan></text>
<text
           transform="matrix(0.9977008,-0.06777255,-0.06777255,-0.9977008,0,0)"
           style="font-variant:normal;font-weight:normal;font-size:18.00138855px;font-family:Helvetica;-inkscape-font-specification:Helvetica;writing-mode:lr-tb;fill:#000000;fill-opacity:1;fill-rule:nonzero;stroke:none"
           id="text4336"
           x="228.74728"
           y="-460.49152"><tspan
             x="228.74728"
             y="-460.49152"
             id="tspan4338">h</tspan></text>
<text
           transform="matrix(0.99277395,-0.11999954,-0.11999954,-0.99277395,0,0)"
           style="font-variant:normal;font-weight:normal;font-size:18.00006866px;font-family:Helvetica;-inkscape-font-specification:Helvetica;writing-mode:lr-tb;fill:#000000;fill-opacity:1;fill-rule:nonzero;stroke:none"
           id="text4340"
           x="213.95213"
           y="-472.36752"><tspan
             x="213.95213"
             y="-472.36752"
             id="tspan4342">a</tspan></text>
<path
           d="m 344.4,412.04 1.38,2.38 1.37,2.38 1.38,2.39 1.37,2.38 1.38,2.38 1.37,2.38 1.37,2.38 1.38,2.38 1.37,2.39 1.38,2.38 1.38,2.38 1.37,2.38 2.36,-1.38 2.34,-1.41 2.33,-1.45 2.3,-1.47 2.29,-1.49 2.27,-1.53 2.25,-1.56 2.23,-1.58 2.21,-1.61 2.19,-1.64 2.17,-1.67 2.14,-1.7 2.13,-1.72 2.1,-1.74 2.08,-1.78 2.06,-1.8 2.04,-1.82 2.01,-1.85 1.99,-1.88 1.97,-1.9 1.94,-1.93 1.92,-1.95 1.89,-1.97 1.87,-2 1.85,-2.02 1.81,-2.04 1.8,-2.07 1.76,-2.09 1.74,-2.11 1.71,-2.13 1.69,-2.15 1.66,-2.18 1.63,-2.19 1.6,-2.22 1.58,-2.24 1.55,-2.25 1.52,-2.27 1.49,-2.3 1.46,-2.31 1.43,-2.33 1.4,-2.35 1.38,-2.36 1.34,-2.39 1.31,-2.39 1.29,-2.42 1.25,-2.43 1.22,-2.45 1.19,-2.46 1.16,-2.48 1.13,-2.49 1.1,-2.5 1.07,-2.52 1.03,-2.53 1,-2.55 0.97,-2.56 0.94,-2.56 0.91,-2.59 0.87,-2.59 0.84,-2.6 0.81,-2.61 0.78,-2.63 0.74,-2.63 0.71,-2.64 0.68,-2.65 0.64,-2.66 0.61,-2.66 0.57,-2.68 0.55,-2.68 0.5,-2.69 0.48,-2.69 0.44,-2.7 0.41,-2.7 0.37,-2.71 0.34,-2.72 0.3,-2.72 0.27,-2.72 0.24,-2.72 0.2,-2.73 0.17,-2.73 0.13,-2.73 0.1,-2.73 0.07,-2.74 -2.75,-0.05 -2.75,-0.04 -2.75,-0.05 -2.75,-0.05 -2.75,-0.05 -2.75,-0.05 -2.75,-0.04 -2.75,-0.05 -2.75,-0.05 -2.75,-0.05 -2.75,-0.05 -2.75,-0.04 -0.05,2.32 -0.09,2.31 -0.11,2.32 -0.14,2.32 -0.17,2.31 -0.21,2.31 -0.22,2.31 -0.26,2.31 -0.29,2.3 -0.32,2.3 -0.34,2.3 -0.38,2.29 -0.4,2.28 -0.43,2.28 -0.46,2.28 -0.49,2.27 -0.52,2.26 -0.54,2.25 -0.57,2.25 -0.61,2.24 -0.63,2.24 -0.65,2.22 -0.69,2.22 -0.71,2.21 -0.75,2.2 -0.76,2.19 -0.8,2.18 -0.82,2.17 -0.85,2.16 -0.88,2.14 -0.91,2.14 -0.93,2.13 -0.96,2.11 -0.98,2.1 -1.01,2.09 -1.04,2.08 -1.06,2.06 -1.09,2.05 -1.12,2.03 -1.14,2.03 -1.16,2 -1.19,2 -1.22,1.97 -1.24,1.96 -1.26,1.95 -1.29,1.93 -1.31,1.91 -1.34,1.9 -1.36,1.88 -1.38,1.86 -1.41,1.85 -1.43,1.83 -1.46,1.8 -1.47,1.8 -1.5,1.77 -1.52,1.75 -1.54,1.73 -1.57,1.72 -1.58,1.69 -1.61,1.68 -1.63,1.65 -1.64,1.64 -1.67,1.61 -1.69,1.59 -1.71,1.57 -1.73,1.55 -1.75,1.53 -1.76,1.5 -1.79,1.49 -1.8,1.46 -1.82,1.43 -1.84,1.42 -1.86,1.39 -1.87,1.37 -1.9,1.34 -1.9,1.32 -1.93,1.3 -1.94,1.27 -1.96,1.25 -1.97,1.22 -1.99,1.2 -2,1.17 z"
           style="fill:#a65628;fill-opacity:1;fill-rule:nonzero;stroke:#000000;stroke-width:0.75;stroke-linecap:round;stroke-linejoin:round;stroke-miterlimit:10;stroke-dasharray:none;stroke-opacity:1"
           id="path4344"
           inkscape:connector-curvature="0" /><text
           transform="matrix(0.65444394,-0.75611053,-0.75611053,-0.65444394,0,0)"
           style="font-variant:normal;font-weight:normal;font-size:18.00001335px;font-family:Helvetica;-inkscape-font-specification:Helvetica;writing-mode:lr-tb;fill:#000000;fill-opacity:1;fill-rule:nonzero;stroke:none"
           id="text4346"
           x="-30.044727"
           y="-548.65338"><tspan
             x="-30.044727"
             y="-548.65338"
             id="tspan4348">S</tspan></text>
<text
           transform="matrix(0.60981812,-0.7925414,-0.7925414,-0.60981812,0,0)"
           style="font-variant:normal;font-weight:normal;font-size:18.00536919px;font-family:Helvetica;-inkscape-font-specification:Helvetica;writing-mode:lr-tb;fill:#000000;fill-opacity:1;fill-rule:nonzero;stroke:none"
           id="text4350"
           x="-49.96553"
           y="-546.67163"><tspan
             x="-49.96553"
             y="-546.67163"
             id="tspan4352">u</tspan></text>
<text
           transform="matrix(0.56733036,-0.82349029,-0.82349029,-0.56733036,0,0)"
           style="font-variant:normal;font-weight:normal;font-size:17.99656868px;font-family:Helvetica;-inkscape-font-specification:Helvetica;writing-mode:lr-tb;fill:#000000;fill-opacity:1;fill-rule:nonzero;stroke:none"
           id="text4354"
           x="-68.953072"
           y="-543.80615"><tspan
             x="-68.953072"
             y="-543.80615"
             id="tspan4356">d</tspan></text>
<text
           transform="matrix(0.52329134,-0.85215384,-0.85215384,-0.52329134,0,0)"
           style="font-variant:normal;font-weight:normal;font-size:18.00144386px;font-family:Helvetica;-inkscape-font-specification:Helvetica;writing-mode:lr-tb;fill:#000000;fill-opacity:1;fill-rule:nonzero;stroke:none"
           id="text4358"
           x="-87.766624"
           y="-539.94666"><tspan
             x="-87.766624"
             y="-539.94666"
             id="tspan4360">a</tspan></text>
<text
           transform="matrix(0.47783965,-0.87844708,-0.87844708,-0.47783965,0,0)"
           style="font-variant:normal;font-weight:normal;font-size:17.99766922px;font-family:Helvetica;-inkscape-font-specification:Helvetica;writing-mode:lr-tb;fill:#000000;fill-opacity:1;fill-rule:nonzero;stroke:none"
           id="text4362"
           x="-106.32684"
           y="-535.11151"><tspan
             x="-106.32684"
             y="-535.11151"
             id="tspan4364">n</tspan></text>
<text
           transform="matrix(0.43114092,-0.9022846,-0.9022846,-0.43114092,0,0)"
           style="font-variant:normal;font-weight:normal;font-size:17.99875641px;font-family:Helvetica;-inkscape-font-specification:Helvetica;writing-mode:lr-tb;fill:#000000;fill-opacity:1;fill-rule:nonzero;stroke:none"
           id="text4366"
           x="-124.56181"
           y="-529.31604"><tspan
             x="-124.56181"
             y="-529.31604"
             id="tspan4368">e</tspan></text>
<text
           transform="matrix(0.38552242,-0.92269847,-0.92269847,-0.38552242,0,0)"
           style="font-variant:normal;font-weight:normal;font-size:18.00154686px;font-family:Helvetica;-inkscape-font-specification:Helvetica;writing-mode:lr-tb;fill:#000000;fill-opacity:1;fill-rule:nonzero;stroke:none"
           id="text4370"
           x="-141.17076"
           y="-522.90588"><tspan
             x="-141.17076"
             y="-522.90588"
             id="tspan4372">s</tspan></text>
<text
           transform="matrix(0.33879814,-0.94085909,-0.94085909,-0.33879814,0,0)"
           style="font-variant:normal;font-weight:normal;font-size:18.00482178px;font-family:Helvetica;-inkscape-font-specification:Helvetica;writing-mode:lr-tb;fill:#000000;fill-opacity:1;fill-rule:nonzero;stroke:none"
           id="text4374"
           x="-158.5295"
           y="-515.63458"><tspan
             x="-158.5295"
             y="-515.63458"
             id="tspan4376">e</tspan></text>
<path
           d="m 226.74,73.38 0.65,4.77 0.61,4.65 0.56,4.54 0.5,4.42 0.45,4.31 0.4,4.18 0.35,4.08 0.3,3.96 0.25,3.84 0.2,3.72 0.14,3.61 0.1,3.49 0.04,3.38 -0.01,3.26 -0.06,3.15 -0.11,3.03 -0.16,2.91 -0.21,2.8 -0.27,2.68 -0.31,2.56 -0.37,2.45 -0.42,2.33 -0.47,2.22 -0.52,2.1 -0.57,1.99 -0.62,1.86 -0.67,1.76 -0.73,1.63 -0.77,1.52 -0.83,1.41 -0.88,1.29 -0.93,1.17 -0.98,1.05 -1.03,0.94 -1.08,0.83 -1.14,0.71 -1.18,0.59 -1.24,0.48 -1.29,0.36 -1.34,0.24 -1.39,0.13 -1.44,0.01 -1.49,-0.11 -1.54,-0.22 -1.6,-0.33 -1.64,-0.45 -1.7,-0.57 -1.75,-0.69 -1.8,-0.8 -1.85,-0.91 -1.9,-1.04 -1.95,-1.14 -2.01,-1.27 -2.05,-1.38 -2.11,-1.5 -2.16,-1.61 -2.21,-1.73 -2.26,-1.84 -2.31,-1.96 -2.36,-2.08 -2.41,-2.19 -2.47,-2.31 -2.52,-2.43 -2.56,-2.54 -2.62,-2.66 -2.67,-2.77 -2.72,-2.89 -2.77,-3 -2.83,-3.12 -2.87,-3.24 -2.93,-3.35 -2.97,-3.47 -3.03,-3.59"
           style="fill:none;stroke:#000000;stroke-width:3.72000003;stroke-linecap:butt;stroke-linejoin:round;stroke-miterlimit:10;stroke-dasharray:none;stroke-opacity:1"
           id="path4378"
           inkscape:connector-curvature="0" /><path
           d="m 140.73,128.25 -3.6,-15.35 14.44,6.33 -10.84,9.02 z"
           style="fill:#000000;fill-opacity:1;fill-rule:nonzero;stroke:#000000;stroke-width:0.08;stroke-linecap:round;stroke-linejoin:miter;stroke-miterlimit:10;stroke-dasharray:none;stroke-opacity:1"
           id="path4380"
           inkscape:connector-curvature="0" /><path
           d="m 81.53,192.97 4.55,1.59 4.41,1.59 4.29,1.57 4.17,1.57 4.03,1.56 3.92,1.56 3.78,1.55 3.66,1.54 3.53,1.53 3.4,1.52 3.28,1.52 3.15,1.51 3.03,1.5 2.9,1.5 2.77,1.49 2.64,1.48 2.52,1.47 2.39,1.47 2.27,1.45 2.13,1.46 2.02,1.44 1.88,1.44 1.76,1.42 1.63,1.43 1.51,1.41 1.38,1.41 1.25,1.39 1.12,1.4 1,1.38 0.87,1.38 0.75,1.37 0.62,1.36 0.49,1.35 0.37,1.35 0.24,1.34 0.11,1.33 -0.02,1.33 -0.14,1.31 -0.26,1.31 -0.4,1.31 -0.52,1.29 -0.64,1.29 -0.78,1.28 -0.9,1.27 -1.03,1.27 -1.15,1.26 -1.28,1.25 -1.41,1.24 -1.53,1.24 -1.66,1.23 -1.79,1.22 -1.91,1.21 -2.04,1.21 -2.17,1.2 -2.29,1.19 -2.42,1.18 -2.54,1.18 -2.68,1.17 -2.8,1.16 -2.92,1.15 -3.06,1.15 -3.17,1.14 -3.31,1.13 -3.43,1.13 -3.56,1.12 -3.69,1.11 -3.81,1.1 -3.94,1.09 -4.06,1.09 -4.2,1.08 -4.32,1.07 -4.44,1.07 -4.57,1.06"
           style="fill:none;stroke:#000000;stroke-width:3.58999991;stroke-linecap:butt;stroke-linejoin:round;stroke-miterlimit:10;stroke-dasharray:none;stroke-opacity:1"
           id="path4382"
           inkscape:connector-curvature="0" /><path
           d="m 91.11,294.54 -15.3,-3.8 12.22,-9.96 3.08,13.76 z"
           style="fill:#000000;fill-opacity:1;fill-rule:nonzero;stroke:#000000;stroke-width:0.08;stroke-linecap:round;stroke-linejoin:miter;stroke-miterlimit:10;stroke-dasharray:none;stroke-opacity:1"
           id="path4384"
           inkscape:connector-curvature="0" /><path
           d="m 382.31,127.25 -2.45,2.33 -2.46,2.29 -2.46,2.24 -2.46,2.2 -2.45,2.15 -2.46,2.11 -2.46,2.06 -2.45,2.02 -2.46,1.97 -2.45,1.93 -2.46,1.88 -2.45,1.84 -2.46,1.79 -2.45,1.75 -2.45,1.71 -2.46,1.66 -2.45,1.61 -2.45,1.57 -2.45,1.52 -2.45,1.48 -2.45,1.44 -2.45,1.39 -2.45,1.34 -2.45,1.31 -2.45,1.25 -2.45,1.21 -2.45,1.17 -2.45,1.12 -2.45,1.08 -2.44,1.03 -2.45,0.99 -2.45,0.94 -2.44,0.89 -2.45,0.86 -2.44,0.81 -2.45,0.76 -2.44,0.72 -2.45,0.67 -2.44,0.63 -2.44,0.58 -2.45,0.54 -2.44,0.49 -2.44,0.45 -2.44,0.41 -2.44,0.36 -2.44,0.31 -2.45,0.27 -2.44,0.23 -2.44,0.18 -2.43,0.13 -2.44,0.09 -2.44,0.05 -2.44,0 -2.44,-0.04 -2.44,-0.09 -2.43,-0.13 -2.44,-0.18 -2.44,-0.22 -2.43,-0.27 -2.44,-0.32 -2.43,-0.35 -2.44,-0.4 -2.43,-0.45 -2.44,-0.49 -2.43,-0.54 -2.43,-0.58 -2.43,-0.63 -2.44,-0.67 -2.43,-0.71 -2.43,-0.77 -2.43,-0.8 -2.43,-0.85 -2.43,-0.9 -2.43,-0.94 -2.43,-0.98 -2.43,-1.03 -2.43,-1.07 -2.43,-1.12 -2.43,-1.17 -2.43,-1.21 -2.42,-1.25 -2.43,-1.3 -2.43,-1.34 -2.42,-1.39 -2.43,-1.43 -2.42,-1.48 -2.43,-1.52 -2.42,-1.57 -2.43,-1.61 -2.42,-1.66 -2.42,-1.7 -2.43,-1.75 -2.42,-1.79 -2.42,-1.84 -2.42,-1.88 -2.42,-1.92 -2.43,-1.97 -2.42,-2.02 -2.42,-2.06 -2.42,-2.1 -2.42,-2.15 -2.42,-2.2 -2.41,-2.24 -2.42,-2.28 -2.42,-2.33"
           style="fill:none;stroke:#000000;stroke-width:3.50999999;stroke-linecap:butt;stroke-linejoin:round;stroke-miterlimit:10;stroke-dasharray:none;stroke-opacity:1"
           id="path4386"
           inkscape:connector-curvature="0" /><path
           d="m 129.01,139.91 -5.13,-14.91 15.01,4.85 -9.88,10.06 z"
           style="fill:#000000;fill-opacity:1;fill-rule:nonzero;stroke:#000000;stroke-width:0.08;stroke-linecap:round;stroke-linejoin:miter;stroke-miterlimit:10;stroke-dasharray:none;stroke-opacity:1"
           id="path4388"
           inkscape:connector-curvature="0" /><path
           d="m 121.69,376.75 3.49,-3.32 3.42,-3.21 3.36,-3.09 3.3,-2.99 3.23,-2.88 3.17,-2.77 3.1,-2.66 3.04,-2.56 2.98,-2.44 2.91,-2.33 2.84,-2.23 2.79,-2.11 2.71,-2.01 2.66,-1.89 2.58,-1.79 2.53,-1.68 2.46,-1.57 2.39,-1.46 2.34,-1.35 2.26,-1.24 2.2,-1.13 2.14,-1.02 2.08,-0.91 2.01,-0.81 1.94,-0.69 1.88,-0.59 1.82,-0.47 1.75,-0.37 1.69,-0.26 1.62,-0.14 1.56,-0.04 1.49,0.07 1.43,0.18 1.37,0.29 1.3,0.4 1.24,0.5 1.17,0.62 1.11,0.73 1.04,0.83 0.98,0.95 0.92,1.05 0.85,1.17 0.78,1.27 0.72,1.38 0.66,1.49 0.59,1.6 0.53,1.71 0.47,1.82 0.4,1.93 0.33,2.04 0.28,2.14 0.2,2.26 0.14,2.37 0.08,2.47 0.02,2.58 -0.05,2.7 -0.12,2.8 -0.18,2.91 -0.24,3.02 -0.31,3.13 -0.37,3.24 -0.44,3.35 -0.5,3.46 -0.57,3.57 -0.62,3.68 -0.7,3.78 -0.76,3.9 -0.82,4 -0.89,4.12 -0.95,4.22 -1.02,4.33 -1.08,4.44 -1.14,4.55"
           style="fill:none;stroke:#000000;stroke-width:3.49000001;stroke-linecap:butt;stroke-linejoin:round;stroke-miterlimit:10;stroke-dasharray:none;stroke-opacity:0.30128205"
           id="path4390"
           inkscape:connector-curvature="0" /><path
           d="m 216.44,414.57 -10.37,11.89 -3.28,-15.43 13.65,3.54 z"
           style="fill:#000000;fill-opacity:0.3019608;fill-rule:nonzero;stroke:#000000;stroke-width:0.08;stroke-linecap:round;stroke-linejoin:miter;stroke-miterlimit:10;stroke-dasharray:none;stroke-opacity:0.3019608"
           id="path4392"
           inkscape:connector-curvature="0" /></g></g></g></svg>